<?xml version="1.0" standalone="no"?>
<!DOCTYPE svg PUBLIC "-//W3C//DTD SVG 20010904//EN"
 "http://www.w3.org/TR/2001/REC-SVG-20010904/DTD/svg10.dtd">
<svg version="1.0" xmlns="http://www.w3.org/2000/svg"
 width="2277.000000pt" height="754.000000pt" viewBox="0 0 2277.000000 754.000000"
 preserveAspectRatio="xMidYMid meet">

<g transform="translate(0.000000,754.000000) scale(0.100000,-0.100000)"
fill="#FFFFFF" stroke="none">
<path d="M1070 6111 c-77 -24 -139 -63 -199 -123 -96 -96 -141 -205 -141 -344
0 -449 546 -660 849 -328 96 105 143 257 122 394 -38 250 -238 421 -490 419
-53 0 -107 -7 -141 -18z"/>
<path d="M1869 6061 l-24 -19 -3 -392 -3 -391 30 -29 29 -30 377 0 c395 0 422
3 439 45 3 9 6 191 6 404 l0 388 -23 21 c-23 22 -27 22 -414 22 -370 0 -392
-1 -414 -19z"/>
<path d="M2931 6054 c-20 -26 -21 -37 -21 -413 1 -288 4 -390 13 -402 29 -37
48 -39 431 -39 l374 0 31 26 31 26 0 388 c0 377 -1 388 -21 414 l-20 26 -399
0 -399 0 -20 -26z"/>
<path d="M824 5016 c-17 -8 -34 -21 -38 -31 -3 -9 -6 -192 -6 -406 0 -372 1
-390 19 -408 11 -11 35 -23 53 -26 18 -3 196 -5 395 -3 362 3 362 3 385 26
l23 23 0 394 0 394 -23 23 -23 23 -377 2 c-302 2 -383 0 -408 -11z"/>
<path d="M1890 5017 c-49 -25 -50 -34 -48 -444 l3 -382 23 -23 c23 -23 23 -23
385 -26 199 -2 377 0 395 3 18 3 42 15 53 26 18 18 19 36 19 410 0 235 -4 398
-10 409 -19 36 -62 40 -434 40 -269 0 -367 -3 -386 -13z"/>
<path d="M5520 4795 c-106 -34 -157 -149 -111 -251 21 -47 59 -78 147 -122 77
-39 124 -78 124 -104 0 -77 -88 -95 -229 -47 -30 11 -58 19 -63 19 -4 0 -8
-27 -8 -61 0 -60 0 -60 38 -76 48 -20 195 -29 248 -14 97 26 147 88 147 180 0
96 -33 135 -171 205 -40 20 -81 45 -92 56 -26 26 -25 65 0 90 25 25 98 27 160
5 23 -8 47 -15 52 -15 8 0 48 82 48 99 0 14 -115 44 -180 47 -39 2 -83 -2
-110 -11z"/>
<path d="M8750 4793 c-78 -24 -152 -99 -176 -179 -25 -80 -24 -220 0 -293 26
-77 103 -154 175 -175 68 -20 172 -21 237 -1 87 26 165 112 188 210 4 16 7 70
7 120 0 156 -55 258 -164 305 -69 31 -190 36 -267 13z m210 -125 c45 -31 69
-82 76 -159 13 -139 -32 -236 -121 -258 -136 -34 -224 67 -213 244 9 133 62
195 168 195 43 0 65 -6 90 -22z"/>
<path d="M4360 4470 l0 -330 70 0 70 0 0 330 0 330 -70 0 -70 0 0 -330z"/>
<path d="M4670 4470 l0 -330 61 0 60 0 -3 250 c-2 138 -2 250 -1 250 0 0 66
-112 145 -250 l143 -250 93 0 92 0 0 330 0 330 -66 0 -66 0 4 -244 c2 -134 0
-242 -3 -240 -3 2 -68 111 -145 244 l-139 240 -87 0 -88 0 0 -330z"/>
<path d="M5880 4740 l0 -60 90 0 90 0 0 -270 0 -270 70 0 70 0 0 270 0 270 90
0 90 0 0 60 0 60 -250 0 -250 0 0 -60z"/>
<path d="M6480 4470 l0 -330 70 0 70 0 0 330 0 330 -70 0 -70 0 0 -330z"/>
<path d="M6730 4740 l0 -60 90 0 90 0 0 -270 0 -270 70 0 70 0 0 270 0 270 90
0 90 0 0 60 0 60 -250 0 -250 0 0 -60z"/>
<path d="M7330 4552 c0 -245 0 -249 25 -299 43 -85 119 -123 246 -123 120 0
204 46 245 134 23 49 24 59 24 294 l0 242 -70 0 -70 0 0 -232 c0 -165 -4 -240
-13 -257 -22 -44 -60 -64 -120 -63 -121 1 -127 17 -127 317 l0 235 -70 0 -70
0 0 -248z"/>
<path d="M7972 4743 l3 -58 93 -3 92 -3 0 -269 0 -270 70 0 70 0 0 270 0 269
88 3 87 3 3 58 3 57 -256 0 -256 0 3 -57z"/>
<path d="M9570 4470 l0 -330 65 0 65 0 0 130 0 130 115 0 115 0 0 55 0 54
-112 3 -113 3 0 85 0 85 123 3 122 3 0 54 0 55 -190 0 -190 0 0 -330z"/>
<path d="M10090 4470 l0 -330 190 0 190 0 0 55 0 55 -120 0 -120 0 0 85 0 85
110 0 110 0 0 60 0 60 -110 0 -110 0 0 75 0 75 120 0 120 0 0 55 0 55 -190 0
-190 0 0 -330z"/>
<path d="M10610 4470 l0 -332 158 4 c169 4 212 15 288 73 80 61 122 228 90
354 -24 93 -68 149 -150 191 -67 34 -68 34 -227 38 l-159 4 0 -332z m310 195
c61 -32 90 -95 90 -197 -1 -147 -67 -216 -207 -218 l-53 0 0 221 0 222 72 -8
c40 -3 84 -13 98 -20z"/>
<path d="M11300 4470 l0 -330 190 0 190 0 0 55 0 55 -120 0 -120 0 0 85 0 85
110 0 110 0 0 60 0 60 -110 0 -110 0 0 75 0 75 120 0 120 0 0 55 0 55 -190 0
-190 0 0 -330z"/>
<path d="M11820 4471 l0 -331 70 0 70 0 0 125 0 125 38 0 c39 0 39 0 116 -125
l78 -125 74 0 c41 0 74 3 74 6 0 3 -42 67 -92 141 l-93 136 25 16 c73 46 107
118 95 197 -9 60 -42 105 -100 134 -45 23 -64 25 -202 28 l-153 4 0 -331z
m272 197 c34 -13 53 -63 39 -101 -14 -36 -46 -54 -113 -62 l-58 -6 0 96 0 97
53 -7 c28 -3 64 -11 79 -17z"/>
<path d="M12572 4773 c-78 -223 -214 -606 -218 -617 -5 -14 5 -16 70 -16 l76
0 22 75 22 76 125 -3 125 -3 21 -70 21 -70 77 -3 77 -3 -18 48 c-11 26 -63
175 -118 330 l-99 283 -87 0 c-85 0 -86 0 -96 -27z m143 -225 c21 -71 36 -130
33 -133 -3 -3 -41 -5 -85 -3 l-79 3 40 137 c23 75 44 134 47 130 3 -4 23 -64
44 -134z"/>
<path d="M13080 4470 l0 -330 205 0 205 0 0 55 0 55 -135 0 -135 0 0 275 0
275 -70 0 -70 0 0 -330z"/>
<path d="M806 3929 l-26 -20 0 -399 0 -399 26 -20 c26 -20 37 -21 414 -21
l388 0 26 31 26 31 0 380 0 380 -29 29 -29 29 -385 0 c-374 0 -385 -1 -411
-21z"/>
<path d="M1869 3921 l-29 -29 0 -377 c0 -384 2 -403 39 -432 12 -9 114 -12
402 -13 376 0 387 1 413 21 l26 20 0 399 0 399 -26 20 c-26 20 -37 21 -411 21
l-385 0 -29 -29z"/>
<path d="M2935 3925 l-25 -24 0 -391 0 -391 25 -24 24 -25 391 0 391 0 24 25
25 24 0 391 0 391 -25 24 -24 25 -391 0 -391 0 -24 -25z"/>
<path d="M12480 3932 c0 -5 -25 -36 -55 -69 -30 -34 -55 -64 -55 -67 0 -3 21
-6 48 -6 39 0 55 6 99 40 29 21 55 35 58 31 3 -5 26 -23 52 -40 34 -23 58 -31
91 -31 24 0 42 3 40 8 -1 4 -28 37 -58 74 l-55 68 -82 0 c-46 0 -83 -4 -83 -8z"/>
<path d="M9691 3917 c-32 -16 -59 -55 -67 -94 -6 -32 -6 -33 30 -33 26 0 36 4
36 15 0 9 11 20 24 26 19 9 35 6 84 -16 46 -20 70 -26 95 -21 48 9 97 67 97
115 0 29 -55 30 -70 2 -17 -32 -45 -34 -109 -6 -68 28 -86 30 -120 12z"/>
<path d="M7965 3739 c-103 -13 -188 -80 -227 -178 -32 -81 -32 -254 0 -325 35
-76 67 -112 128 -142 50 -24 67 -27 148 -26 50 0 109 7 131 15 40 14 40 14 43
70 2 32 -1 57 -5 57 -4 0 -33 -7 -63 -15 -99 -27 -160 -17 -212 32 -38 36 -51
83 -51 178 1 174 82 252 223 213 30 -8 63 -18 72 -23 14 -6 22 2 38 41 12 26
19 53 16 60 -11 29 -157 55 -241 43z"/>
<path d="M9205 3739 c-105 -14 -177 -65 -222 -157 -26 -53 -28 -65 -28 -182 0
-110 3 -131 24 -177 28 -64 81 -114 145 -138 36 -14 45 -22 40 -34 -16 -40
-15 -46 15 -58 63 -23 49 -69 -19 -65 -39 3 -40 2 -40 -32 0 -38 12 -46 71
-46 45 0 98 19 118 44 7 9 14 35 15 57 1 35 -4 46 -33 69 -18 16 -31 33 -27
38 3 5 29 12 58 15 29 3 65 10 81 16 25 10 27 15 27 67 0 54 -1 56 -22 50 -65
-18 -157 -28 -193 -22 -51 10 -99 60 -114 120 -25 102 -4 230 46 278 54 52
111 60 195 28 29 -11 56 -20 59 -20 11 0 50 103 42 111 -13 11 -105 37 -148
41 -22 2 -62 1 -90 -3z"/>
<path d="M10409 3737 c-99 -22 -170 -84 -205 -178 -12 -31 -17 -76 -18 -154 0
-101 2 -115 28 -173 53 -115 143 -166 291 -165 190 0 294 108 303 314 8 186
-54 302 -186 347 -54 19 -152 23 -213 9z m170 -127 c59 -29 84 -90 85 -199 0
-104 -14 -151 -59 -190 -89 -78 -229 -38 -263 76 -15 51 -16 170 0 214 17 51
47 90 82 105 45 19 111 17 155 -6z"/>
<path d="M11695 3740 c-101 -14 -174 -72 -222 -175 -25 -54 -27 -71 -27 -165
0 -84 5 -116 22 -161 23 -59 74 -119 120 -143 50 -26 137 -36 218 -26 107 14
114 19 114 87 0 53 -1 55 -22 49 -218 -65 -315 2 -306 211 2 59 10 100 22 126
40 81 123 105 227 67 33 -12 62 -20 63 -18 1 1 12 26 23 55 l21 52 -39 15
c-21 9 -58 18 -81 21 -24 4 -52 8 -63 9 -11 2 -43 0 -70 -4z"/>
<path d="M13884 3739 c-65 -8 -146 -52 -180 -96 -56 -74 -69 -119 -69 -243 0
-98 3 -122 23 -164 35 -77 67 -112 128 -142 49 -24 67 -27 142 -26 48 0 107 7
132 14 l45 14 3 57 c2 31 -1 57 -5 57 -4 0 -33 -7 -63 -15 -176 -47 -264 21
-264 205 0 71 4 94 24 135 46 90 116 114 225 76 32 -12 61 -21 63 -21 8 0 42
95 38 106 -11 29 -157 55 -242 43z"/>
<path d="M17513 3739 c-161 -20 -254 -141 -256 -334 -1 -126 21 -194 88 -261
36 -36 64 -54 100 -64 61 -17 163 -17 233 0 l52 12 0 60 c0 58 -1 60 -22 54
-61 -18 -147 -28 -182 -22 -52 10 -101 59 -116 117 -7 25 -10 79 -8 124 5 97
31 152 88 184 48 27 94 27 165 0 31 -12 58 -19 60 -17 2 1 13 27 24 56 l21 53
-28 10 c-15 5 -34 12 -42 15 -31 12 -127 19 -177 13z"/>
<path d="M18839 3737 c-99 -22 -170 -84 -205 -178 -12 -31 -17 -76 -18 -154 0
-101 2 -115 28 -173 53 -115 143 -166 291 -165 190 0 294 108 303 314 8 186
-54 302 -186 347 -54 19 -152 23 -213 9z m172 -129 c58 -33 82 -89 83 -197 0
-104 -14 -151 -59 -190 -89 -78 -229 -38 -263 76 -27 90 -8 237 36 286 44 50
139 61 203 25z"/>
<path d="M20110 3737 c-124 -29 -189 -96 -220 -226 -16 -66 -8 -197 15 -262
20 -58 75 -124 125 -149 87 -44 243 -45 329 0 50 25 96 76 123 135 20 43 23
66 23 170 0 139 -18 195 -83 258 -72 70 -198 100 -312 74z m178 -133 c50 -37
72 -97 72 -199 0 -102 -22 -162 -73 -199 -41 -30 -144 -30 -184 0 -50 38 -67
79 -71 180 -6 130 21 198 92 230 42 19 129 13 164 -12z"/>
<path d="M20904 3739 c-120 -14 -223 -95 -257 -200 -21 -65 -22 -208 -2 -276
44 -148 171 -215 365 -193 44 5 97 14 120 20 l40 11 0 169 0 170 -130 0 -130
0 0 -55 0 -55 60 0 60 0 0 -69 c0 -78 -3 -81 -78 -81 -113 0 -173 68 -180 205
-3 72 -1 85 25 135 31 60 75 96 132 106 32 6 121 -4 177 -21 18 -6 24 1 41 47
l21 53 -52 16 c-66 21 -135 27 -212 18z"/>
<path d="M4360 3405 l0 -338 143 6 c86 3 162 11 193 21 110 34 182 116 204
232 26 135 -8 253 -92 329 -68 61 -121 76 -300 82 l-148 6 0 -338z m310 193
c63 -32 90 -88 90 -184 0 -87 -13 -129 -53 -172 -36 -37 -80 -52 -154 -52
l-53 0 0 215 0 215 63 0 c45 0 75 -6 107 -22z"/>
<path d="M5050 3405 l0 -335 190 0 190 0 0 60 0 60 -120 0 -120 0 0 85 0 85
110 0 110 0 0 55 0 55 -110 0 -110 0 0 75 0 75 120 0 120 0 0 60 0 60 -190 0
-190 0 0 -335z"/>
<path d="M5820 3405 l0 -335 190 0 190 0 0 60 0 60 -120 0 -120 0 0 85 0 85
110 0 110 0 0 55 0 55 -110 0 -110 0 0 75 0 75 120 0 120 0 0 60 0 60 -190 0
-190 0 0 -335z"/>
<path d="M6340 3405 l0 -338 148 5 c172 6 238 26 308 90 67 62 89 123 89 248
0 95 -3 111 -28 162 -33 68 -81 111 -157 139 -44 17 -86 22 -207 27 l-153 5 0
-338z m303 201 c99 -41 136 -205 74 -328 -30 -58 -89 -88 -174 -88 l-63 0 0
215 0 215 65 0 c36 0 80 -6 98 -14z"/>
<path d="M7032 3476 l3 -264 30 -44 c44 -64 124 -101 218 -102 97 0 158 19
211 65 70 62 76 91 76 371 l0 238 -70 0 -70 0 0 -230 c0 -266 -5 -291 -67
-316 -70 -30 -161 -3 -185 54 -7 17 -13 117 -16 260 l-4 232 -64 0 -65 0 3
-264z"/>
<path d="M8370 3418 c-62 -178 -115 -329 -118 -335 -3 -10 15 -13 71 -13 l76
0 23 78 24 77 124 0 123 0 24 -77 24 -78 75 0 c42 0 74 4 72 9 -1 5 -55 156
-118 335 l-115 326 -86 0 -86 0 -113 -322z m246 67 l41 -135 -87 0 -87 0 41
135 c22 74 43 135 46 135 3 0 24 -61 46 -135z"/>
<path d="M9715 3728 c-47 -127 -225 -641 -225 -649 0 -6 28 -9 72 -7 l72 3 25
78 25 77 121 0 121 0 25 -77 25 -78 72 -3 c41 -2 72 1 72 7 0 5 -51 155 -114
332 l-114 324 -86 3 c-64 2 -88 -1 -91 -10z m175 -370 c0 -5 -39 -8 -86 -8
-65 0 -85 3 -82 13 3 6 23 70 44 141 l38 129 43 -134 c23 -74 43 -137 43 -141z"/>
<path d="M12070 3405 l0 -336 68 3 67 3 0 330 0 330 -67 3 -68 3 0 -336z"/>
<path d="M12375 3728 c-3 -7 -4 -157 -3 -333 l3 -320 190 0 190 0 0 55 0 55
-122 3 -123 3 0 84 0 85 115 0 115 0 0 55 0 54 -112 3 -113 3 -3 72 -3 72 123
3 123 3 0 55 0 55 -188 3 c-145 2 -189 0 -192 -10z"/>
<path d="M12900 3405 l0 -335 60 0 60 0 2 249 3 248 142 -246 141 -246 91 -3
91 -3 0 336 0 335 -66 0 -66 0 4 -249 c3 -187 1 -245 -8 -233 -6 9 -64 109
-129 222 -166 288 -140 260 -241 260 l-84 0 0 -335z"/>
<path d="M14257 3733 c-4 -3 -7 -154 -7 -335 l0 -328 70 0 70 0 0 335 0 335
-63 0 c-35 0 -67 -3 -70 -7z"/>
<path d="M14715 3728 c-66 -183 -225 -643 -225 -650 0 -5 33 -8 73 -6 l72 3
24 78 25 77 122 0 122 0 24 -77 24 -78 72 -3 c54 -2 72 0 72 10 0 7 -52 157
-114 333 l-114 320 -86 3 c-64 2 -88 -1 -91 -10z m135 -235 c22 -73 40 -135
40 -138 0 -3 -39 -5 -86 -5 -72 0 -85 2 -80 15 3 8 22 71 42 140 21 69 39 124
40 122 2 -2 21 -62 44 -134z"/>
<path d="M15455 3728 c-3 -7 -4 -157 -3 -333 l3 -320 190 0 190 0 0 55 0 55
-122 3 -123 3 0 84 0 85 115 0 115 0 0 55 0 54 -112 3 -113 3 -3 72 -3 72 123
3 123 3 0 55 0 55 -188 3 c-145 2 -189 0 -192 -10z"/>
<path d="M16160 3680 l0 -60 90 0 90 0 0 -275 0 -275 70 0 70 0 0 275 0 275
90 0 91 0 -3 58 -3 57 -247 3 -248 2 0 -60z"/>
<path d="M16760 3405 l0 -335 190 0 190 0 0 60 0 60 -120 0 -120 0 0 85 0 85
115 0 115 0 0 55 0 54 -112 3 -113 3 -3 73 -3 72 121 0 120 0 0 60 0 60 -190
0 -190 0 0 -335z"/>
<path d="M17885 3727 c-3 -7 -4 -156 -3 -332 l3 -320 64 -3 64 -3 -5 250 c-3
138 -4 251 -3 251 2 0 67 -112 146 -250 l144 -250 88 0 87 0 0 335 0 335 -60
0 -60 0 -2 -247 -3 -248 -143 248 -144 247 -84 0 c-59 0 -86 -4 -89 -13z"/>
<path d="M19387 3733 c-4 -3 -7 -154 -7 -335 l0 -328 205 0 205 0 0 60 0 60
-135 0 -135 0 0 275 0 275 -63 0 c-35 0 -67 -3 -70 -7z"/>
<path d="M21330 3405 l0 -335 70 0 70 0 0 335 0 335 -70 0 -70 0 0 -335z"/>
<path d="M21786 3724 c-21 -56 -226 -642 -226 -647 0 -4 33 -7 74 -7 l73 0 24
80 23 80 122 0 123 0 23 -77 24 -78 72 -3 c55 -2 72 0 72 11 0 7 -51 157 -113
333 l-114 319 -85 3 c-73 2 -87 0 -92 -14z m138 -242 c21 -68 36 -126 33 -128
-2 -3 -40 -4 -84 -2 l-80 3 41 137 c22 76 43 132 47 125 3 -6 23 -68 43 -135z"/>
<path d="M10936 3093 c-9 -49 -19 -100 -22 -115 -6 -28 -6 -28 44 -28 l49 0
37 95 c51 133 50 135 -28 135 l-63 0 -17 -87z"/>
<path d="M802 2857 c-22 -23 -22 -27 -22 -414 0 -370 1 -392 19 -414 l19 -24
390 -3 390 -3 29 25 28 24 3 374 c2 205 0 383 -3 396 -3 12 -14 31 -25 42 -19
19 -35 20 -413 20 l-394 0 -21 -23z"/>
<path d="M1869 2861 l-24 -19 -3 -392 -3 -391 30 -30 30 -30 391 3 392 3 19
24 c18 22 19 44 19 415 l0 393 -23 21 c-23 22 -27 22 -414 22 -370 0 -392 -1
-414 -19z"/>
<path d="M6096 2696 c-25 -40 -46 -76 -46 -80 0 -9 39 -7 60 4 21 11 120 127
120 141 0 5 -20 9 -44 9 -44 0 -44 0 -90 -74z"/>
<path d="M5677 2723 c-13 -12 -7 -71 8 -83 39 -32 91 22 65 69 -10 20 -58 30
-73 14z"/>
<path d="M4553 2701 c-96 -33 -170 -109 -198 -205 -20 -65 -20 -206 0 -272 28
-95 97 -167 190 -199 78 -26 252 -21 358 11 15 5 17 22 17 175 l0 169 -120 0
-120 0 0 -35 0 -35 80 0 80 0 0 -109 0 -109 -36 -6 c-20 -4 -72 -7 -116 -7
-67 0 -90 5 -136 27 -92 45 -139 148 -130 284 9 124 68 211 165 246 52 18 155
17 225 -2 63 -18 73 -15 83 28 6 25 4 28 -46 42 -73 22 -229 21 -296 -3z"/>
<path d="M5206 2536 c-114 -43 -162 -130 -154 -281 9 -159 94 -247 238 -247
158 0 251 117 237 299 -11 144 -91 231 -219 239 -40 3 -77 -1 -102 -10z m180
-86 c46 -44 58 -78 59 -170 0 -96 -19 -149 -68 -184 -40 -29 -134 -29 -174 0
-54 40 -68 79 -68 184 0 108 15 148 68 181 47 29 146 23 183 -11z"/>
<path d="M6055 2544 c-21 -5 -108 -35 -113 -39 -5 -4 21 -55 28 -55 4 0 27 7
50 15 59 21 142 20 169 -2 12 -10 26 -36 31 -58 17 -74 19 -72 -81 -80 -124
-9 -180 -27 -218 -70 -78 -89 -34 -222 81 -243 50 -10 121 -2 153 15 11 6 31
23 45 38 l25 27 11 -39 c9 -30 16 -39 37 -41 l27 -3 0 213 c0 238 -6 266 -66
300 -32 18 -140 32 -179 22z m165 -325 c0 -67 -27 -112 -80 -133 -108 -43
-196 8 -172 99 15 55 75 82 190 84 l62 1 0 -51z"/>
<path d="M6555 2541 c-77 -19 -115 -62 -115 -132 0 -69 29 -99 142 -145 136
-57 170 -94 138 -154 -22 -42 -137 -52 -227 -21 l-53 18 0 -38 c0 -36 2 -39
42 -49 22 -7 76 -12 120 -12 107 0 162 26 190 90 41 93 2 151 -142 213 -52 22
-105 50 -117 62 -54 50 -8 107 87 107 31 0 77 -6 103 -14 l46 -14 12 30 c6 16
9 31 6 35 -3 3 -32 12 -64 19 -62 15 -120 16 -168 5z"/>
<path d="M5670 2275 l0 -265 40 0 40 0 0 265 0 265 -40 0 -40 0 0 -265z"/>
</g>
</svg>
