<?xml version="1.0" encoding="UTF-8" standalone="no"?>
<svg
   version="1.1"
   id="Layer_1"
   x="0px"
   y="0px"
   width="100%"
   viewBox="0 0 1111 1397"
   enable-background="new 0 0 1111 1397"
   xml:space="preserve"
   sodipodi:docname="ifg_logo_only.svg"
   inkscape:version="1.3.2 (091e20e, 2023-11-25, custom)"
   xmlns:inkscape="http://www.inkscape.org/namespaces/inkscape"
   xmlns:sodipodi="http://sodipodi.sourceforge.net/DTD/sodipodi-0.dtd"
   xmlns="http://www.w3.org/2000/svg"
   xmlns:svg="http://www.w3.org/2000/svg"><defs
   id="defs40" /><sodipodi:namedview
   id="namedview40"
   pagecolor="#505050"
   bordercolor="#eeeeee"
   borderopacity="1"
   inkscape:showpageshadow="0"
   inkscape:pageopacity="0"
   inkscape:pagecheckerboard="0"
   inkscape:deskcolor="#505050"
   inkscape:zoom="0.43580454"
   inkscape:cx="844.41525"
   inkscape:cy="788.19739"
   inkscape:window-width="1920"
   inkscape:window-height="1057"
   inkscape:window-x="-8"
   inkscape:window-y="-8"
   inkscape:window-maximized="1"
   inkscape:current-layer="Layer_1" />

<path
   fill="#FFFFFF"
   opacity="1"
   stroke="none"
   d="m 700.09324,172.75161 c 0.006,-9.32425 -0.17285,-17.65439 0.056,-25.97333 0.45142,-16.39965 9.9281,-25.89578 26.41003,-25.97174 37.29566,-0.17187 74.59265,-0.0565 111.88904,-0.0571 26.64026,-4.5e-4 53.28089,-0.0713 79.92078,0.0252 18.64245,0.0675 28.2456,9.65702 28.26526,28.33655 0.0666,63.27066 0.0632,126.54147 0.002,189.8121 -0.0184,18.9541 -9.22571,28.2522 -28.11939,28.27539 -63.60376,0.0779 -127.20752,0.0784 -190.81116,-0.005 -18.65442,-0.0245 -27.52209,-8.84167 -27.56433,-27.60669 -0.12439,-55.27837 -0.0466,-110.55724 -0.048,-166.83514 z"
   id="path2"
   style="stroke-width:2" />
<path
   fill="#FFFFFF"
   opacity="1"
   stroke="none"
   d="m 356.55863,564.74886 c -6e-5,23.64576 0.0692,46.29181 -0.0213,68.9372 -0.0771,19.30969 -9.59436,28.87622 -28.79779,28.89105 -63.2749,0.049 -126.54987,0.0555 -189.82471,-0.005 -18.31659,-0.0176 -27.96209,-9.2536 -28.00738,-27.46979 -0.15894,-63.94055 -0.15296,-127.88196 0.005,-191.82257 0.045,-18.19531 9.02588,-27.0874 27.07849,-27.11871 63.94079,-0.11078 127.88189,-0.10242 191.82275,-0.006 18.3233,0.0275 27.6557,9.39838 27.70709,27.70502 0.11225,39.96277 0.0366,79.92621 0.0377,120.88934 z"
   id="path3"
   style="stroke-width:2" />
<path
   fill="#FFFFFF"
   opacity="1"
   stroke="none"
   d="m 598.76341,662.59481 c -54.94666,0 -108.89423,0.008 -162.84186,-0.004 -22.18494,-0.005 -31.09101,-8.72601 -31.09784,-30.51465 -0.0195,-61.93982 -0.0195,-123.8797 3.6e-4,-185.81952 0.007,-21.69092 8.4505,-30.11963 30.24616,-30.12951 62.27289,-0.0282 124.54584,-0.035 186.81866,0.006 21.26929,0.0139 29.40638,8.24206 29.42054,29.75457 0.0409,62.27289 0.0452,124.54572 -0.002,186.81861 -0.016,21.1206 -8.71631,29.82592 -29.56628,29.88421 -7.3263,0.0205 -14.65247,0.004 -22.97778,0.004 z"
   id="path4"
   style="stroke-width:2" />
<path
   fill="#FFFFFF"
   opacity="1"
   stroke="none"
   d="m 356.55808,926.33407 c -0.2763,22.62341 -8.74524,31.18542 -30.3714,31.20752 -61.95227,0.0636 -123.90466,0.062 -185.85693,0.005 -22.40332,-0.0206 -30.46313,-8.26197 -30.47528,-30.97803 -0.033,-61.61926 -0.0358,-123.23841 0,-184.85767 0.0131,-22.3598 8.47662,-30.79803 30.74811,-30.80346 61.61926,-0.0151 123.23846,-0.0145 184.85772,-9.8e-4 22.39704,0.005 31.09003,8.85052 31.09436,31.62646 0.0117,60.95313 0.004,121.90625 0.003,183.80103 z"
   id="path5"
   style="stroke-width:2" />
<path
   fill="#FFFFFF"
   opacity="1"
   stroke="none"
   d="m 405.57896,938.81063 c -0.43994,-21.77209 -0.70777,-42.75036 -0.7406,-63.72888 -0.0709,-45.30603 -0.0692,-90.61243 0.003,-135.91834 0.0295,-18.64093 9.63513,-28.2185 28.35742,-28.23657 63.29529,-0.0611 126.59064,-0.0577 189.88605,6e-5 18.87097,0.0173 28.17773,9.25812 28.2041,28.22162 0.0885,63.6283 0.0966,127.25708 -0.0106,190.88526 -0.0306,18.14685 -8.828,27.38122 -26.82422,27.43896 -64.29406,0.2063 -128.58917,0.08 -192.88385,0.0719 -12.73114,-0.002 -21.66559,-5.47632 -25.9909,-18.73401 z"
   id="path6"
   style="stroke-width:2" />
<path
   fill="#FFFFFF"
   opacity="1"
   stroke="none"
   d="m 836.76804,957.56674 c -35.9674,-1.3e-4 -70.93481,0.0428 -105.9021,-0.0161 -22.68725,-0.0383 -30.7489,-8.07178 -30.76098,-30.62121 -0.0332,-61.94226 -0.0402,-123.8844 0.004,-185.8266 0.0156,-21.66901 8.60461,-30.18616 30.27258,-30.19294 61.94226,-0.0192 123.8844,-0.0203 185.82666,-1.2e-4 21.34583,0.007 30.43445,9.01129 30.44324,30.19837 0.026,61.94226 0.0214,123.8844 0.002,185.82666 -0.007,22.10058 -8.53869,30.56091 -30.95874,30.61487 -25.97571,0.0625 -51.95154,0.016 -78.92737,0.0171 z"
   id="path7"
   style="stroke-width:2" />
<path
   fill="#FFFFFF"
   opacity="1"
   stroke="none"
   d="m 216.76841,1006.2669 c 37.63269,3e-4 74.26556,-0.054 110.89807,0.023 19.61981,0.041 28.84693,9.1588 28.86652,28.607 0.0634,62.9416 0.0634,125.8833 7.9e-4,188.8249 -0.0194,19.4207 -9.48096,28.9878 -28.65643,29.0055 -63.2746,0.058 -126.54944,0.063 -189.82404,0 -18.82007,-0.019 -28.12738,-9.2578 -28.16314,-28.3103 -0.11878,-63.2744 -0.11225,-126.5494 -0.003,-189.8238 0.0343,-19.8118 8.82258,-28.2485 28.95276,-28.303 25.64264,-0.069 51.28559,-0.018 77.92847,-0.019 z"
   id="path8"
   style="stroke-width:2" />
<path
   fill="#FFFFFF"
   opacity="1"
   stroke="none"
   d="m 544.76829,120.7496 c 26.64221,1.2e-4 52.28467,-0.0578 77.92676,0.0193 19.56689,0.0588 28.57702,9.05545 28.59985,28.78976 0.0729,62.94 0.0669,125.88022 0.004,188.82022 -0.02,20.11114 -8.573,28.80444 -28.349,28.82397 -63.27307,0.0624 -126.54626,0.0685 -189.81933,-10e-4 -19.03876,-0.0209 -28.27185,-9.20539 -28.2898,-28.07001 -0.0603,-63.27307 -0.0568,-126.54626 -0.003,-189.8193 0.0162,-19.17401 9.54382,-28.51242 29.03467,-28.54483 36.63183,-0.0609 73.26379,-0.0179 110.89563,-0.0181 z"
   id="path9"
   style="stroke-width:2" />
<path
   fill="#FFFFFF"
   opacity="1"
   stroke="none"
   d="m 644.20933,1013.2325 c 2.73828,6.9689 6.77441,13.3845 6.82165,19.8292 0.47119,64.2995 0.37207,128.6038 0.2262,192.9063 -0.0389,17.1561 -9.59937,26.6972 -26.61719,26.729 -64.30249,0.1202 -128.60559,0.1178 -192.9082,9e-4 -16.83753,-0.031 -26.83374,-9.96 -26.86426,-26.6871 -0.11743,-64.3025 -0.10779,-128.6056 -0.007,-192.908 0.0267,-17.0789 9.53381,-26.7409 26.55365,-26.7752 64.63568,-0.1304 129.27301,-0.2219 193.90582,0.2313 6.1261,0.043 12.22473,3.996 18.88953,6.6736 z"
   id="path10"
   style="stroke-width:2" />
<path
   fill="#FFFFFF"
   opacity="1"
   stroke="none"
   d="m 311.59165,133.85336 c 47.54486,35.71051 66.80609,82.8193 54.37158,139.84894 -12.00201,55.04601 -47.83075,90.15252 -103.21649,101.55248 -54.30481,11.17756 -100.86322,-5.5849 -134.3504,-49.99285 -34.183656,-45.33155 -37.671998,-95.71445 -10.83899,-145.52484 26.15765,-48.55664 69.21051,-71.0593 124.42328,-69.53333 25.29877,0.69925 48.13348,9.20114 69.61102,23.6496 z"
   id="path11"
   style="stroke-width:2" />





























</svg>
