<?xml version="1.0" encoding="UTF-8" standalone="no"?>
<svg
   version="1.0"
   width="1062.000000pt"
   height="495.000000pt"
   viewBox="0 0 1062.000000 495.000000"
   preserveAspectRatio="xMidYMid meet"
   id="svg23"
   sodipodi:docname="ifg_text.svg"
   inkscape:version="1.3.2 (091e20e, 2023-11-25, custom)"
   xmlns:inkscape="http://www.inkscape.org/namespaces/inkscape"
   xmlns:sodipodi="http://sodipodi.sourceforge.net/DTD/sodipodi-0.dtd"
   xmlns="http://www.w3.org/2000/svg"
   xmlns:svg="http://www.w3.org/2000/svg">
  <defs
     id="defs23" />
  <sodipodi:namedview
     id="namedview23"
     pagecolor="#505050"
     bordercolor="#eeeeee"
     borderopacity="1"
     inkscape:showpageshadow="0"
     inkscape:pageopacity="0"
     inkscape:pagecheckerboard="0"
     inkscape:deskcolor="#505050"
     inkscape:document-units="pt"
     inkscape:zoom="0.86158192"
     inkscape:cx="708"
     inkscape:cy="237.3541"
     inkscape:window-width="1920"
     inkscape:window-height="1057"
     inkscape:window-x="-8"
     inkscape:window-y="-8"
     inkscape:window-maximized="1"
     inkscape:current-layer="svg23" />
  <g
     transform="translate(0.000000,495.000000) scale(0.100000,-0.100000)"
     fill="#FFFFFF"
     stroke="none"
     id="g23">
    <path
       d="M3185 4359 c-147 -24 -252 -104 -291 -222 -24 -71 -16 -206 15 -267 43 -82 116 -140 280 -224 190 -98 218 -127 211 -216 -9 -118 -217 -136 -455 -39 -38 16 -73 29 -77 29 -5 0 -8 -53 -8 -119 l0 -118 79 -26 c270 -90 554 -39 663 118 38 55 62 155 54 228 -15 146 -86 224 -314 341 -81 42 -154 82 -162 88 -73 59 -63 165 19 204 53 25 184 14 288 -24 l82 -30 42 99 c23 55 40 102 37 104 -2 2 -44 18 -94 34 -140 47 -254 59 -369 40z"
       id="path1" />
    <path
       d="M9111 4355 c-208 -39 -348 -175 -408 -395 -24 -90 -24 -336 0 -434 52 -208 180 -341 377 -392 79 -21 259 -24 345 -5 206 44 343 186 396 409 18 74 20 109 16 237 -3 127 -8 162 -31 232 -58 177 -175 291 -349 339 -77 22 -257 26 -346 9z m289 -227 c76 -32 139 -125 160 -238 15 -79 12 -242 -6 -319 -38 -168 -151 -251 -324 -239 -127 9 -217 86 -257 217 -24 79 -24 303 0 382 23 77 73 148 127 181 75 46 211 53 300 16z"
       id="path2" />
    <path
       d="M970 3740 l0 -610 130 0 130 0 0 610 0 610 -130 0 -130 0 0 -610z"
       id="path3" />
    <path
       d="M1540 3740 l0 -610 116 0 116 0 -3 459 c-2 253 -2 457 1 455 2 -3 122 -209 265 -457 l261 -452 167 -3 167 -2 0 610 0 610 -116 0 -115 0 3 -455 c2 -268 -1 -450 -6 -445 -5 5 -125 208 -266 452 l-258 443 -166 3 -166 2 0 -610z"
       id="path4" />
    <path
       d="M3760 4245 l0 -105 165 0 165 0 0 -505 0 -505 130 0 130 0 2 503 3 502 163 3 162 2 0 105 0 105 -460 0 -460 0 0 -105z"
       id="path5" />
    <path
       d="M4870 3740 l0 -610 130 0 130 0 0 610 0 610 -130 0 -130 0 0 -610z"
       id="path6" />
    <path
       d="M5320 4245 l0 -105 165 0 165 0 0 -505 0 -505 130 0 130 0 2 503 3 502 168 3 167 2 0 105 0 105 -465 0 -465 0 0 -105z"
       id="path7" />
    <path
       d="M6430 3933 c0 -532 8 -572 124 -688 91 -91 205 -130 381 -129 179 0 303 48 399 156 54 59 84 135 97 243 5 44 9 250 9 458 l0 377 -129 0 -130 0 -4 -422 c-4 -469 -5 -476 -68 -539 -40 -40 -98 -59 -181 -59 -105 0 -169 34 -211 114 -22 40 -22 50 -25 474 l-3 432 -129 0 -130 0 0 -417z"
       id="path8" />
    <path
       d="M7620 4245 l0 -105 165 0 165 0 0 -505 0 -505 130 0 130 0 2 503 3 502 163 3 162 2 0 105 0 105 -460 0 -460 0 0 -105z"
       id="path9" />
    <path
       d="m 6358.918,2537.4591 c -89,-252 -186,-529 -216,-615 l -55,-158 h 139 139 l 26,88 c 14,48 34,112 44,142 l 18,55 224,3 224,2 44,-145 44,-145 h 139 c 108,0 139,3 135,13 -2,6 -100,283 -217,615 l -213,602 h -157 -157 z m 399,-3 c 38,-124 72,-233 75,-242 5,-17 -7,-18 -154,-18 h -160 l 24,78 c 14,42 47,154 75,247 62,208 61,206 67,180 2,-11 35,-121 73,-245 z"
       id="path10" />
    <path
       d="m 966.91803,2374.4591 v -610 h 129.99997 130 v 240 240 h 205 205 v 105 105 h -205 -205 v 160 160 h 220 220 v 105 105 h -350 -349.99997 z"
       id="path11" />
    <path
       d="m 1916.918,2374.4591 v -610 h 350 350 v 105 105 h -220 -220 v 160 160 h 205 205 v 105 105 h -205 -205 v 135 135 h 220 220 v 105 105 h -350 -350 z"
       id="path12" />
    <path
       d="m 2876.918,2374.4591 v -612 l 258,5 c 221,4 268,7 335,25 214,58 354,201 402,407 38,161 14,385 -53,510 -36,65 -124,154 -192,192 -115,65 -175,76 -477,80 l -273,5 z m 572,362 c 102,-50 150,-127 169,-273 13,-97 0,-221 -31,-293 -56,-132 -181,-196 -382,-196 h -68 v 401 401 l 124,-4 c 114,-4 128,-6 188,-36 z"
       id="path13" />
    <path
       d="m 4146.918,2374.4591 v -610 h 350 350 v 105 105 h -220 -220 v 160 160 h 205 205 v 105 105 h -205 -205 v 135 135 h 220 220 v 105 105 h -350 -350 z"
       id="path14" />
    <path
       d="m 5106.918,2374.4591 v -610 h 130 130 v 235 235 h 69 69 l 146,-235 147,-235 h 140 c 76,0 139,2 139,5 0,3 -79,122 -176,266 -97,143 -175,262 -173,263 2,2 22,13 45,24 60,30 139,121 160,184 24,71 22,187 -5,259 -26,69 -88,134 -157,166 -91,42 -185,53 -435,53 h -229 z m 502,372 c 63,-27 81,-64 76,-148 -3,-54 -9,-68 -33,-94 -38,-39 -109,-60 -207,-60 h -78 v 166 167 l 98,-5 c 68,-3 111,-11 144,-26 z"
       id="path15" />
    <path
       d="m 7436.918,2374.4591 v -610 h 375 375 v 105 105 l -247,2 -248,3 -3,503 -2,502 h -125 -125 z"
       id="path16" />
    <path
       d="m 3314.4918,1143 c -7,-16 -33,-58 -57,-94 -24,-37 -44,-72 -44,-78 0,-6 15,-11 33,-11 27,0 43,11 93,63 71,73 114,125 114,138 0,5 -29,9 -63,9 -60,0 -65,-2 -76,-27 z"
       id="path17" />
    <path
       d="m 2728.4918,1116 c -14,-10 -20,-26 -20,-56 0,-30 6,-46 20,-56 44,-32 98,-1 98,56 0,57 -54,88 -98,56 z"
       id="path18" />
    <path
       d="m 1335.4918,1109 c -172,-26 -293,-118 -353,-269 -27,-68 -38,-255 -20,-343 27,-128 115,-243 224,-292 115,-52 306,-54 500,-4 l 37,10 v 224 225 h -160 -160 v -45 -45 h 105 105 V 426 c 0,-128 -2,-145 -17,-151 -10,-4 -68,-10 -129,-12 -95,-5 -122,-3 -181,15 -159,49 -233,184 -221,401 13,227 157,352 387,338 50,-2 111,-14 146,-26 32,-11 62,-18 67,-13 4,4 14,24 22,44 15,35 15,38 -3,48 -63,33 -250,54 -349,39 z"
       id="path19" />
    <path
       d="m 2092.4918,864 c -62,-19 -132,-83 -165,-150 -36,-74 -46,-229 -20,-318 45,-152 146,-229 302,-229 135,0 229,57 283,173 24,50 26,66 26,185 0,122 -2,133 -28,187 -34,68 -101,131 -164,152 -57,20 -172,20 -234,0 z m 227,-98 c 122,-73 136,-375 22,-471 -91,-76 -256,-48 -307,54 -31,59 -43,157 -31,242 12,86 42,142 89,172 63,38 165,39 227,3 z"
       id="path20" />
    <path
       d="m 3195.4918,871 c -48,-13 -122,-42 -122,-49 0,-18 26,-72 35,-72 5,0 35,10 65,21 63,24 172,30 208,10 39,-21 62,-70 62,-132 v -56 l -112,-6 c -122,-6 -215,-29 -268,-67 -63,-45 -88,-157 -55,-237 34,-82 95,-116 205,-116 87,0 147,22 195,71 17,17 33,32 37,32 4,0 11,-19 15,-42 8,-42 10,-43 52,-46 l 43,-3 -3,273 c -4,270 -4,274 -30,323 -37,74 -87,99 -204,102 -49,1 -105,-2 -123,-6 z m 246,-425 c -6,-96 -30,-136 -104,-172 -46,-22 -64,-26 -116,-22 -53,4 -65,9 -89,36 -59,66 -29,174 57,202 36,12 143,26 218,29 l 39,1 z"
       id="path21" />
    <path
       d="m 3859.4918,868 c -54,-15 -122,-83 -131,-130 -20,-104 35,-172 186,-232 165,-66 199,-92 199,-156 0,-103 -193,-131 -372,-55 -16,6 -18,1 -18,-39 0,-41 3,-47 30,-61 46,-24 183,-37 258,-24 138,22 202,84 202,197 0,91 -49,137 -213,204 -135,55 -177,86 -177,132 0,68 87,105 205,86 36,-6 76,-15 90,-20 41,-16 49,-12 67,30 l 16,39 -46,16 c -57,21 -240,29 -296,13 z"
       id="path22" />
    <path
       d="M 2713.4918,525 V 180 h 55 55 v 345 345 h -55 -55 z"
       id="path23" />
  </g>
</svg>
